<svg xmlns="http://www.w3.org/2000/svg" data-name="Layer 1" viewBox="0 0 512 512" id="music">
  <path fill="#66c1ff"
    d="M241.846 8.844 133.493 32.195a17.366 17.366 0 0 0-13.744 16.953v186.475a74.638 74.638 0 0 0-24.586-4.133c-37.844 0-68.524 27.789-68.524 62.068s30.68 62.068 68.525 62.068c26.008 0 52.021-14.137 62.833-38.24 9.397-20.947 5.69-46.128 5.69-68.594V99.723l149.22-34.658c-.513-36.868-34.84-64.026-71.06-56.22Z">
  </path>
  <path fill="#66c1ff"
    d="M241.793 180.676V380.32a3.069 3.069 0 0 1-3.941 2.926 74.872 74.872 0 0 0-20.645-2.882c-37.845 0-68.524 27.789-68.524 62.068s30.679 62.068 68.524 62.068c26.008 0 52.022-14.137 62.834-38.24 9.396-20.947 5.69-46.129 5.69-68.594V235.287a5.093 5.093 0 0 1 3.95-4.954l145.27-33.74a5.107 5.107 0 0 1 6.276 4.954v163.51a3.069 3.069 0 0 1-3.941 2.927 74.872 74.872 0 0 0-20.645-2.883c-37.845 0-68.524 27.789-68.524 62.068 0 34.28 30.679 62.068 68.523 62.068 22.902 0 45.674-11.856 58.518-31.253 12.446-18.796 10.013-38.54 10.006-59.777q-.017-56.814 0-113.627V133.16a15.32 15.32 0 0 0-18.589-14.917l-211.038 45.48a17.366 17.366 0 0 0-13.744 16.953Z">
  </path>
  <path fill="#4eb7ff"
    d="M411.227 201.547a5.107 5.107 0 0 0-6.276-4.954l-145.27 33.74a5.093 5.093 0 0 0-3.95 4.954v162.379c0 22.465 3.706 47.647-5.69 68.595-8.737 19.476-27.402 32.44-47.967 36.701a75.532 75.532 0 0 0 15.133 1.538c26.008 0 52.022-14.137 62.834-38.24 9.396-20.947 5.69-46.129 5.69-68.594V235.287a5.093 5.093 0 0 1 3.95-4.954l121.546-28.23zm-199.465 179.03a75.1 75.1 0 0 0-9.559 1.297c1.913.39 3.8.842 5.649 1.372a3.059 3.059 0 0 0 3.91-2.67zm273.402 17.63q-.017-56.814 0-113.627V133.16a15.32 15.32 0 0 0-18.589-14.917l-16.532 3.563a15.116 15.116 0 0 1 5.121 11.354V398.207c.007 21.236 2.44 40.981-10.006 59.777a71.12 71.12 0 0 1-43.917 29.66 75.514 75.514 0 0 0 15.4 1.593c22.9 0 45.673-11.856 58.517-31.253 12.446-18.796 10.013-38.54 10.006-59.777zm-73.968-32.893a75.101 75.101 0 0 0-9.559 1.298c1.913.389 3.8.842 5.649 1.372a3.059 3.059 0 0 0 3.91-2.67zm-253.199-47.927c9.397-20.948 5.69-46.13 5.69-68.595V99.722l149.22-34.657c-.512-36.868-34.84-64.026-71.06-56.22l-2.689.579a58.418 58.418 0 0 1 43.75 55.64L133.686 99.724v149.07c0 22.465 3.707 47.646-5.69 68.594-8.737 19.476-27.401 32.44-47.966 36.702a75.54 75.54 0 0 0 15.133 1.537c26.008 0 52.021-14.137 62.833-38.24zM89.749 231.7a75.09 75.09 0 0 0-9.597 1.301 73.883 73.883 0 0 1 9.597 2.62z">
  </path>
  <path fill="#272a33"
    d="M95.163 363.126c-41.92 0-76.023-31.208-76.023-69.568s34.103-69.568 76.023-69.568a82.635 82.635 0 0 1 17.086 1.774V49.148a25.003 25.003 0 0 1 19.664-24.284L240.267 1.513a66.076 66.076 0 0 1 80.14 63.447 7.5 7.5 0 0 1-5.803 7.41l-143.417 33.31v143.112c0 4.767.17 9.614.35 14.746.67 19.148 1.364 38.947-6.697 56.919-11.448 25.521-39.45 42.669-69.677 42.67Zm0-124.136c-33.648 0-61.023 24.48-61.023 54.568s27.375 54.568 61.023 54.568c24.419 0 46.92-13.587 55.991-33.809 6.634-14.79 6.002-32.818 5.392-50.254-.177-5.035-.36-10.242-.36-15.271V99.722a7.5 7.5 0 0 1 5.804-7.305l142.986-33.21a50.586 50.586 0 0 0-18.74-33.027 51.174 51.174 0 0 0-42.81-10.004l-1.58-7.332 1.58 7.332-108.353 23.35a9.924 9.924 0 0 0-7.824 9.622v186.475a7.5 7.5 0 0 1-9.968 7.083 67.04 67.04 0 0 0-22.118-3.716Z">
  </path>
  <path fill="#272a33"
    d="M217.207 512c-41.92 0-76.024-31.208-76.024-69.568s34.103-69.568 76.023-69.568a82.74 82.74 0 0 1 17.087 1.775V180.676a25.003 25.003 0 0 1 19.663-24.284l211.04-45.48a22.82 22.82 0 0 1 27.668 22.248l-.002 189.296q-.004 37.874.002 75.749c.001 2.944.05 5.924.099 8.807.303 18.209.617 37.037-11.35 55.112a78.445 78.445 0 0 1-64.772 34.613h-.001c-41.92 0-76.023-31.208-76.023-69.568s34.104-69.568 76.024-69.568a82.74 82.74 0 0 1 17.086 1.775v-154.8L293.23 237.209v160.457c0 4.767.17 9.614.35 14.746.671 19.148 1.365 38.948-6.697 56.919-11.448 25.522-39.45 42.67-69.676 42.67Zm-.001-124.136c-33.648 0-61.023 24.48-61.023 54.568S183.558 497 217.207 497c24.418 0 46.919-13.587 55.99-33.81 6.635-14.79 6.003-32.818 5.393-50.254-.177-5.035-.36-10.242-.36-15.27V235.287a12.54 12.54 0 0 1 9.754-12.26l145.27-33.74a12.607 12.607 0 0 1 15.474 12.26v163.51a10.451 10.451 0 0 1-4.196 8.416 10.668 10.668 0 0 1-9.313 1.72 67.419 67.419 0 0 0-18.578-2.592c-33.649 0-61.024 24.48-61.024 54.568 0 30.089 27.375 54.568 61.023 54.568 20.529 0 41.045-10.948 52.265-27.894 9.399-14.196 9.149-29.203 8.86-46.581-.05-2.943-.1-5.986-.101-9.053q-.01-37.877-.002-75.754l.002-189.295a7.704 7.704 0 0 0-2.885-6.015 7.86 7.86 0 0 0-6.624-1.57l-211.039 45.48a9.923 9.923 0 0 0-7.823 9.62V380.32a10.453 10.453 0 0 1-4.195 8.416 10.67 10.67 0 0 1-9.314 1.72 67.419 67.419 0 0 0-18.578-2.592Z">
  </path>
</svg>
