<svg width="461.279" height="75.293" viewBox="0 0 461.279 75.293" xmlns="http://www.w3.org/2000/svg"><g id="svgGroup" stroke-linecap="round" fill-rule="evenodd" font-size="9pt" stroke="#000" stroke-width="0.25mm" fill="#000" style="stroke:#000;stroke-width:0.25mm;fill:#000"><path d="M 306.836 6.592 L 306.836 10.889 L 301.27 11.279 A 2.681 2.681 0 0 0 300.625 11.382 A 1.739 1.739 0 0 0 299.683 12.036 A 2.943 2.943 0 0 0 299.341 12.638 A 2.182 2.182 0 0 0 299.17 13.477 L 299.17 73.682 L 291.357 73.682 L 254.15 17.676 L 254.15 66.797 A 2.173 2.173 0 0 0 254.412 67.819 A 2.925 2.925 0 0 0 254.663 68.213 Q 255.164 68.881 256.202 68.989 A 3.61 3.61 0 0 0 256.25 68.994 L 261.963 69.385 L 261.963 73.682 L 240.332 73.682 L 240.332 69.385 L 246.045 68.994 A 2.976 2.976 0 0 0 246.751 68.848 A 2.038 2.038 0 0 0 247.681 68.213 A 2.761 2.761 0 0 0 248.034 67.671 A 1.977 1.977 0 0 0 248.242 66.797 L 248.242 13.477 A 2.042 2.042 0 0 0 248.024 12.573 A 2.949 2.949 0 0 0 247.681 12.036 A 1.932 1.932 0 0 0 246.579 11.352 A 2.86 2.86 0 0 0 246.045 11.279 L 240.137 10.889 L 240.137 6.592 L 259.961 6.592 L 259.961 9.082 L 293.262 59.375 L 293.262 13.477 A 2.126 2.126 0 0 0 293.041 12.548 A 2.993 2.993 0 0 0 292.725 12.036 A 1.86 1.86 0 0 0 291.559 11.326 A 2.714 2.714 0 0 0 291.162 11.279 L 285.449 10.889 L 285.449 6.592 L 306.836 6.592 Z M 103.271 69.775 L 103.271 73.682 L 81.006 73.682 L 81.006 69.775 L 85.107 69.482 Q 85.986 69.385 86.646 68.799 A 1.913 1.913 0 0 0 87.302 67.4 A 2.525 2.525 0 0 0 87.305 67.285 L 87.305 41.504 A 14.838 14.838 0 0 0 86.992 38.374 Q 86.504 36.11 85.254 34.399 A 5.837 5.837 0 0 0 82.854 32.53 Q 80.752 31.592 77.393 31.592 A 19.301 19.301 0 0 0 74.295 31.854 A 25.455 25.455 0 0 0 71.704 32.422 A 27.731 27.731 0 0 0 69.207 33.223 Q 67.993 33.68 66.967 34.22 A 16.143 16.143 0 0 0 66.504 34.473 L 66.504 67.285 A 3.057 3.057 0 0 0 66.613 68.14 Q 66.893 69.099 67.886 69.378 A 3.13 3.13 0 0 0 68.506 69.482 L 72.803 69.775 L 72.803 73.682 L 50.293 73.682 L 50.293 69.775 L 55.078 69.482 A 3.151 3.151 0 0 0 55.941 69.311 Q 56.897 68.962 57.114 67.941 A 3.16 3.16 0 0 0 57.178 67.285 L 57.178 7.178 L 49.707 7.178 L 49.707 3.857 L 62.5 0 L 66.504 0 L 66.504 30.469 A 39.486 39.486 0 0 1 67.941 29.621 Q 68.644 29.224 69.456 28.795 A 89.084 89.084 0 0 1 71.191 27.905 A 50.347 50.347 0 0 1 77.246 25.366 Q 80.42 24.268 83.008 24.268 Q 88.77 24.268 92.676 27.979 A 11.487 11.487 0 0 1 95.598 32.668 Q 96.582 35.532 96.582 39.404 L 96.582 67.285 Q 96.582 68.213 97.241 68.799 Q 97.9 69.385 98.779 69.482 L 103.271 69.775 Z M 364.844 69.775 L 364.844 73.682 L 342.578 73.682 L 342.578 69.775 L 346.68 69.482 Q 347.559 69.385 348.218 68.799 A 1.913 1.913 0 0 0 348.874 67.4 A 2.525 2.525 0 0 0 348.877 67.285 L 348.877 41.504 A 14.838 14.838 0 0 0 348.564 38.374 Q 348.076 36.11 346.826 34.399 A 5.837 5.837 0 0 0 344.427 32.53 Q 342.324 31.592 338.965 31.592 A 19.301 19.301 0 0 0 335.867 31.854 A 25.455 25.455 0 0 0 333.276 32.422 A 27.731 27.731 0 0 0 330.779 33.223 Q 329.565 33.68 328.539 34.22 A 16.143 16.143 0 0 0 328.076 34.473 L 328.076 67.285 A 3.057 3.057 0 0 0 328.186 68.14 Q 328.465 69.099 329.458 69.378 A 3.13 3.13 0 0 0 330.078 69.482 L 334.375 69.775 L 334.375 73.682 L 311.865 73.682 L 311.865 69.775 L 316.65 69.482 A 3.151 3.151 0 0 0 317.513 69.311 Q 318.47 68.962 318.687 67.941 A 3.16 3.16 0 0 0 318.75 67.285 L 318.75 7.178 L 311.279 7.178 L 311.279 3.857 L 324.072 0 L 328.076 0 L 328.076 30.469 A 39.486 39.486 0 0 1 329.513 29.621 Q 330.216 29.224 331.028 28.795 A 89.084 89.084 0 0 1 332.764 27.905 A 50.347 50.347 0 0 1 338.818 25.366 Q 341.992 24.268 344.58 24.268 Q 350.342 24.268 354.248 27.979 A 11.487 11.487 0 0 1 357.17 32.668 Q 358.154 35.532 358.154 39.404 L 358.154 67.285 Q 358.154 68.213 358.813 68.799 Q 359.473 69.385 360.352 69.482 L 364.844 69.775 Z M 0 71.582 L 0 53.857 L 6.299 53.857 L 7.617 65.186 A 2.061 2.061 0 0 0 7.769 65.678 Q 7.933 66.049 8.252 66.455 A 5.27 5.27 0 0 0 8.583 66.839 Q 8.942 67.215 9.277 67.383 A 0.897 0.897 0 0 1 9.375 67.412 Q 9.818 67.562 11.847 68.432 A 290.187 290.187 0 0 1 12.134 68.555 A 11.476 11.476 0 0 0 14.169 69.194 Q 16.273 69.663 19.195 69.677 A 37.819 37.819 0 0 0 19.385 69.678 A 21.536 21.536 0 0 0 24.039 69.201 A 15.069 15.069 0 0 0 29.932 66.553 A 10.03 10.03 0 0 0 34.017 59.215 A 13.79 13.79 0 0 0 34.082 57.861 A 9.168 9.168 0 0 0 33.534 54.654 A 8.372 8.372 0 0 0 32.397 52.563 A 15.864 15.864 0 0 0 29.608 49.684 A 19.496 19.496 0 0 0 28.027 48.535 Q 25.342 46.777 22.29 45.337 A 841.242 841.242 0 0 1 19.318 43.927 A 717.778 717.778 0 0 1 16.504 42.578 Q 12.402 40.625 8.887 38.403 A 18.761 18.761 0 0 1 4.076 34.1 A 17.712 17.712 0 0 1 3.223 32.91 Q 1.264 29.927 1.091 25.443 A 22.906 22.906 0 0 1 1.074 24.561 Q 1.074 18.604 4.102 14.209 A 19.652 19.652 0 0 1 11.315 7.909 A 23.671 23.671 0 0 1 12.354 7.397 Q 17.578 4.98 24.17 4.98 Q 29.116 4.98 32.986 5.871 A 27.662 27.662 0 0 1 33.643 6.03 A 148.82 148.82 0 0 1 37.284 7.009 Q 38.988 7.492 40.492 7.969 A 87.198 87.198 0 0 1 40.918 8.105 L 41.797 8.398 L 41.797 23.975 L 36.084 23.975 L 34.57 14.404 A 1.651 1.651 0 0 0 34.443 13.952 A 1.232 1.232 0 0 0 33.96 13.403 A 5.258 5.258 0 0 1 33.008 12.646 A 2.557 2.557 0 0 0 32.804 12.513 Q 32.282 12.197 30.845 11.5 A 99.335 99.335 0 0 0 30.591 11.377 A 7.611 7.611 0 0 0 29.129 10.867 Q 27.671 10.504 25.572 10.424 A 32.677 32.677 0 0 0 24.316 10.4 A 17.393 17.393 0 0 0 20.367 10.823 Q 17.078 11.589 14.844 13.745 A 11.155 11.155 0 0 0 11.38 21.852 A 14.643 14.643 0 0 0 11.377 22.168 A 9.459 9.459 0 0 0 14.375 29.253 A 11.999 11.999 0 0 0 14.966 29.785 A 23.923 23.923 0 0 0 18.026 31.949 Q 21.029 33.763 25.293 35.4 Q 34.375 38.818 39.331 43.091 A 13.998 13.998 0 0 1 44.098 52.069 A 20.204 20.204 0 0 1 44.287 54.883 A 18.913 18.913 0 0 1 42.061 63.718 A 22.676 22.676 0 0 1 41.577 64.6 A 18.01 18.01 0 0 1 37.042 69.744 A 24.888 24.888 0 0 1 33.032 72.29 Q 28.524 74.61 21.872 75.138 A 51.902 51.902 0 0 1 17.773 75.293 A 52.558 52.558 0 0 1 13.373 75.119 Q 10.666 74.891 8.398 74.365 Q 4.395 73.438 2.197 72.51 L 0 71.582 Z M 416.406 69.775 L 416.406 73.682 L 401.611 73.682 L 400.293 67.773 L 398.804 68.848 A 31.273 31.273 0 0 1 397.667 69.627 Q 396.475 70.409 394.873 71.338 A 31.998 31.998 0 0 1 391.274 73.123 A 37.718 37.718 0 0 1 389.478 73.828 A 17.517 17.517 0 0 1 384.877 74.851 A 16.069 16.069 0 0 1 383.594 74.902 A 12.835 12.835 0 0 1 374.39 71.289 A 11.916 11.916 0 0 1 370.939 64.88 A 17.499 17.499 0 0 1 370.605 61.377 Q 370.605 58.594 371.606 56.201 A 8.34 8.34 0 0 1 372.862 54.154 Q 373.918 52.86 375.61 51.636 Q 378.479 49.56 384.022 47.573 A 72.419 72.419 0 0 1 384.546 47.388 Q 390.414 45.335 400.079 43.211 A 264.505 264.505 0 0 1 400.293 43.164 L 400.293 38.867 Q 400.293 29.004 390.967 29.004 A 23.157 23.157 0 0 0 388.981 29.084 Q 387.999 29.169 387.147 29.343 A 12.473 12.473 0 0 0 386.499 29.492 A 60.035 60.035 0 0 0 385.631 29.724 Q 384.463 30.046 383.911 30.264 A 5.275 5.275 0 0 0 383.887 30.273 L 383.887 38.965 L 376.611 38.965 A 6.403 6.403 0 0 1 374.604 38.655 A 5.954 5.954 0 0 1 374.072 38.452 Q 373.066 38.012 372.924 36.581 A 5.036 5.036 0 0 1 372.9 36.084 A 8.73 8.73 0 0 1 373.682 32.355 A 8.628 8.628 0 0 1 376.025 29.37 A 17.556 17.556 0 0 1 380.074 26.864 A 23.997 23.997 0 0 1 383.96 25.513 A 38.716 38.716 0 0 1 393.701 24.268 A 32.176 32.176 0 0 1 397.305 24.456 Q 400.97 24.87 403.32 26.196 A 11.306 11.306 0 0 1 406.373 28.659 A 10.191 10.191 0 0 1 408.105 31.519 A 18.528 18.528 0 0 1 409.247 35.884 A 24.28 24.28 0 0 1 409.473 39.258 L 409.473 67.285 A 2.301 2.301 0 0 0 409.581 68.007 A 1.911 1.911 0 0 0 410.083 68.799 A 2.485 2.485 0 0 0 411.572 69.482 L 416.406 69.775 Z M 461.279 64.258 L 461.279 69.971 A 54.334 54.334 0 0 1 457.219 71.926 A 69.472 69.472 0 0 1 453.687 73.34 A 25.247 25.247 0 0 1 447.249 74.772 A 30.766 30.766 0 0 1 444.385 74.902 A 25.105 25.105 0 0 1 438.05 74.135 A 20.244 20.244 0 0 1 432.251 71.631 A 21.877 21.877 0 0 1 424.292 62.72 A 26.783 26.783 0 0 1 421.713 53.871 A 33.627 33.627 0 0 1 421.484 49.902 A 34.939 34.939 0 0 1 422.031 43.55 Q 422.723 39.807 424.292 36.767 A 20.929 20.929 0 0 1 424.829 35.791 A 22.932 22.932 0 0 1 430.256 29.412 A 21.46 21.46 0 0 1 433.667 27.173 A 25.044 25.044 0 0 1 445.557 24.268 A 28.096 28.096 0 0 1 450.472 24.675 Q 453.281 25.174 455.581 26.285 A 16.515 16.515 0 0 1 456.616 26.831 A 9.815 9.815 0 0 1 459.16 28.868 Q 461.084 31.073 461.084 34.277 A 7.438 7.438 0 0 1 460.887 36.044 A 4.771 4.771 0 0 1 459.253 38.696 A 6.585 6.585 0 0 1 456.948 39.935 A 6.247 6.247 0 0 1 455.176 40.186 A 8.292 8.292 0 0 1 453.807 40.078 Q 453.007 39.944 452.338 39.644 A 5.217 5.217 0 0 1 452.295 39.624 Q 451.074 39.063 450.146 38.477 L 450.146 29.785 Q 448.44 28.805 446.949 28.553 A 6.022 6.022 0 0 0 445.947 28.467 A 12.616 12.616 0 0 0 441.637 29.183 A 11.289 11.289 0 0 0 438.306 31.079 A 15.145 15.145 0 0 0 434.749 35.338 A 19.957 19.957 0 0 0 433.398 38.232 A 26.101 26.101 0 0 0 431.994 43.907 A 34.538 34.538 0 0 0 431.689 48.584 A 28.565 28.565 0 0 0 432.344 54.8 A 24.216 24.216 0 0 0 433.545 58.667 A 17.252 17.252 0 0 0 436.486 63.533 A 15.605 15.605 0 0 0 439.087 65.918 A 13.74 13.74 0 0 0 444.693 68.286 A 18.99 18.99 0 0 0 448.242 68.604 A 19.759 19.759 0 0 0 454.883 67.48 A 28.059 28.059 0 0 0 458.869 65.695 A 34.417 34.417 0 0 0 461.279 64.258 Z M 151.221 62.598 L 151.221 68.701 A 51.271 51.271 0 0 1 142.163 73.096 Q 137.305 74.902 132.227 74.902 A 24.576 24.576 0 0 1 120.874 72.192 A 20.717 20.717 0 0 1 112.936 64.975 A 25.166 25.166 0 0 1 112.305 63.965 A 22.051 22.051 0 0 1 109.851 57.739 Q 109.199 54.977 109.067 51.764 A 40.482 40.482 0 0 1 109.033 50.098 A 34.018 34.018 0 0 1 109.698 43.213 A 25.786 25.786 0 0 1 112.061 36.475 A 22.725 22.725 0 0 1 117.745 29.349 A 21.861 21.861 0 0 1 120.41 27.466 A 22.492 22.492 0 0 1 130.434 24.346 A 27.439 27.439 0 0 1 132.52 24.268 Q 141.846 24.268 146.533 30.054 A 20.602 20.602 0 0 1 150.716 39.251 A 28.896 28.896 0 0 1 151.221 44.775 L 151.221 46.069 A 11.686 11.686 0 0 1 151.19 46.937 A 9.268 9.268 0 0 1 151.123 47.559 L 118.701 47.559 A 36.367 36.367 0 0 0 119.507 55.151 A 21.77 21.77 0 0 0 121.541 60.833 A 20.11 20.11 0 0 0 122.217 62.012 A 14.33 14.33 0 0 0 127.344 66.943 Q 130.566 68.799 135.4 68.799 A 18.954 18.954 0 0 0 143.647 66.883 A 21.827 21.827 0 0 0 143.774 66.821 A 66.478 66.478 0 0 0 148.933 64.043 A 56.17 56.17 0 0 0 151.221 62.598 Z M 200.244 62.598 L 200.244 68.701 A 51.271 51.271 0 0 1 191.187 73.096 Q 186.328 74.902 181.25 74.902 A 24.576 24.576 0 0 1 169.897 72.192 A 20.717 20.717 0 0 1 161.959 64.975 A 25.166 25.166 0 0 1 161.328 63.965 A 22.051 22.051 0 0 1 158.875 57.739 Q 158.223 54.977 158.09 51.764 A 40.482 40.482 0 0 1 158.057 50.098 A 34.018 34.018 0 0 1 158.722 43.213 A 25.786 25.786 0 0 1 161.084 36.475 A 22.725 22.725 0 0 1 166.768 29.349 A 21.861 21.861 0 0 1 169.434 27.466 A 22.492 22.492 0 0 1 179.458 24.346 A 27.439 27.439 0 0 1 181.543 24.268 Q 190.869 24.268 195.557 30.054 A 20.602 20.602 0 0 1 199.739 39.251 A 28.896 28.896 0 0 1 200.244 44.775 L 200.244 46.069 A 11.686 11.686 0 0 1 200.213 46.937 A 9.268 9.268 0 0 1 200.146 47.559 L 167.725 47.559 A 36.367 36.367 0 0 0 168.53 55.151 A 21.77 21.77 0 0 0 170.565 60.833 A 20.11 20.11 0 0 0 171.24 62.012 A 14.33 14.33 0 0 0 176.367 66.943 Q 179.59 68.799 184.424 68.799 A 18.954 18.954 0 0 0 192.67 66.883 A 21.827 21.827 0 0 0 192.798 66.821 A 66.478 66.478 0 0 0 197.957 64.043 A 56.17 56.17 0 0 0 200.244 62.598 Z M 236.963 67.578 L 236.963 71.582 L 235.083 72.412 A 23.097 23.097 0 0 1 233.652 72.983 Q 232.903 73.255 232.028 73.528 A 54.228 54.228 0 0 1 230.151 74.072 A 23.65 23.65 0 0 1 225.904 74.804 A 29.082 29.082 0 0 1 223.486 74.902 Q 220.082 74.902 217.8 73.924 A 7.522 7.522 0 0 1 215.308 72.241 Q 212.744 69.58 212.744 63.672 L 212.744 30.469 L 206.348 30.469 L 206.348 27.197 L 213.184 23.975 L 217.676 13.379 L 222.07 13.379 L 222.07 25.488 L 236.182 25.488 L 236.182 30.469 L 222.07 30.469 L 222.07 58.398 A 28.279 28.279 0 0 0 222.195 61.159 Q 222.571 64.972 224.072 66.821 A 6.395 6.395 0 0 0 227.562 68.996 Q 228.631 69.269 229.907 69.286 A 12.797 12.797 0 0 0 230.078 69.287 Q 232.407 69.287 234.134 68.747 A 8.655 8.655 0 0 0 234.985 68.433 L 236.963 67.578 Z M 400.293 64.258 L 400.293 46.973 Q 393.704 48.596 389.753 50.243 A 34.678 34.678 0 0 0 389.575 50.317 Q 385.596 52.002 383.643 53.687 Q 382.21 54.922 381.5 56.184 A 5.817 5.817 0 0 0 381.079 57.104 A 10.728 10.728 0 0 0 380.469 60.693 A 9.164 9.164 0 0 0 382.265 66.136 A 11.364 11.364 0 0 0 382.446 66.382 A 6.381 6.381 0 0 0 387.122 68.953 A 8.971 8.971 0 0 0 387.988 68.994 A 12.492 12.492 0 0 0 390.81 68.659 A 15.193 15.193 0 0 0 392.139 68.286 A 28.597 28.597 0 0 0 395.317 67.031 A 25.386 25.386 0 0 0 396.143 66.626 A 71.548 71.548 0 0 0 397.026 66.165 Q 398.201 65.541 399.029 65.037 A 23.085 23.085 0 0 0 399.146 64.966 L 400.293 64.258 Z M 119.238 43.066 L 141.211 43.066 L 141.211 40.869 A 17.028 17.028 0 0 0 140.789 36.986 A 12.578 12.578 0 0 0 138.843 32.568 A 7.654 7.654 0 0 0 133.889 29.423 A 12.11 12.11 0 0 0 131.494 29.199 A 11.008 11.008 0 0 0 123.424 32.57 A 13.983 13.983 0 0 0 123.096 32.91 A 13.549 13.549 0 0 0 120.089 38.198 Q 119.4 40.398 119.238 43.066 Z M 168.262 43.066 L 190.234 43.066 L 190.234 40.869 A 17.028 17.028 0 0 0 189.813 36.986 A 12.578 12.578 0 0 0 187.866 32.568 A 7.654 7.654 0 0 0 182.912 29.423 A 12.11 12.11 0 0 0 180.518 29.199 A 11.008 11.008 0 0 0 172.447 32.57 A 13.983 13.983 0 0 0 172.119 32.91 A 13.549 13.549 0 0 0 169.113 38.198 Q 168.423 40.398 168.262 43.066 Z" vector-effect="non-scaling-stroke"/></g></svg>
